<?xml version="1.0" encoding="UTF-8" standalone="no"?>
<svg
   version="1.1"
   width="302.55075"
   height="267.89059"
   id="svg66"
   sodipodi:docname="favicon.svg"
   inkscape:version="1.2.2 (b0a8486541, 2022-12-01)"
   xmlns:inkscape="http://www.inkscape.org/namespaces/inkscape"
   xmlns:sodipodi="http://sodipodi.sourceforge.net/DTD/sodipodi-0.dtd"
   xmlns="http://www.w3.org/2000/svg"
   xmlns:svg="http://www.w3.org/2000/svg">
  <defs
     id="defs70" />
  <sodipodi:namedview
     id="namedview68"
     pagecolor="#ffffff"
     bordercolor="#000000"
     borderopacity="0.25"
     inkscape:showpageshadow="2"
     inkscape:pageopacity="0.0"
     inkscape:pagecheckerboard="0"
     inkscape:deskcolor="#d1d1d1"
     showgrid="false"
     inkscape:zoom="1.2916667"
     inkscape:cx="149.80645"
     inkscape:cy="177.67742"
     inkscape:window-width="1920"
     inkscape:window-height="1043"
     inkscape:window-x="0"
     inkscape:window-y="0"
     inkscape:window-maximized="1"
     inkscape:current-layer="svg66" />
  <path
     d="m 130.17383,6.2922332 c 6.18786,5.2236358 10.31043,11.1479258 14.33203,18.1171868 0.99,1.485 0.99,1.485 2,3 0.49307,-0.908789 0.49307,-0.908789 0.9961,-1.835937 6.17779,-10.882291 13.42651,-19.0703051 24.7539,-24.4765623 7.99278,-1.69078 16.97844,-1.7864786 24.25,2.3125 2.78254,2.2284349 5.37143,4.5611013 7.9336,7.0390623 1.91207,2.005139 1.91207,2.005139 4.0664,2.960938 1.70404,-0.416543 3.39004,-0.908239 5.0625,-1.4375 9.58063,-2.7070254 18.27687,-2.253649 27.13672,2.65625 7.49163,5.137116 11.73982,12.003407 13.80078,20.781249 0.96101,10.034745 -0.45354,18.611386 -4,28 2.59721,1.298603 3.52624,0.760206 6.3125,0.0625 11.18408,-2.356242 21.94892,-1.876789 32,3.8125 7.5631,5.980123 12.39398,12.770493 13.6875,22.5 0.52223,11.22001 -3.54178,21.0411 -10.62891,29.58984 -4.23255,4.48788 -9.14512,7.80003 -14.37109,11.03516 0.66,0.47437 1.32,0.94875 2,1.4375 8.79699,7.51409 15.01884,15.75087 16.19141,27.47656 0.45204,8.25341 -2.10539,15.88237 -7.19141,22.39844 -9.59599,10.04999 -22.88967,11.85718 -36,12.6875 0.79664,0.94359 0.79664,0.94359 1.60938,1.90625 8.25823,10.00633 12.98166,19.03639 12.70703,32.21875 -0.83751,7.60991 -3.68863,14.61425 -9.31641,19.875 -8.90904,6.38558 -17.07008,8.94631 -28,8 -2.02162,-0.49682 -4.04243,-0.99691 -6.0625,-1.5 -3.68743,-0.69494 -5.21848,-0.94101 -8.45312,1.04297 -1.53175,1.43014 -3.02622,2.90127 -4.48047,4.41015 -4.75781,4.85983 -10.73885,5.63094 -17.24219,6.03906 -9.55075,0.027 -17.37044,-3.81428 -24.2539,-10.36328 -10.50782,-11.31743 -10.50782,-11.31743 -10.50782,-17.6289 -0.66,0 -1.32,0 -2,0 -0.10183,0.71543 -0.20367,1.43086 -0.30859,2.16797 -2.2077,9.04283 -10.00599,18.32704 -17.87109,23.17578 -8.26004,4.23592 -17.44635,5.18306 -26.52735,3.00781 -9.18295,-3.76324 -14.687221,-10.19927 -19.261718,-18.80078 -1.03125,-2.55078 -1.03125,-2.55078 -1.03125,-6.55078 -0.943593,0.5066 -0.943593,0.5066 -1.90625,1.02343 -10.894645,5.67703 -21.709475,8.08016 -34.003906,5.32422 -9.264084,-3.33621 -15.027182,-9.10621 -19.179687,-17.91797 -3.80287,-10.15186 -1.814127,-19.59263 2.089843,-29.42968 4.311828,-8.31183 4.311828,-8.31183 7,-11 -1.956797,-0.12955 -1.956797,-0.12955 -3.953125,-0.26172 -12.013796,-0.91556 -24.385656,-2.00528 -33.5117157,-10.83985 -6.317,-7.81185 -8.45495003,-15.37046 -7.97656003,-25.35546 1.01079003,-8.11323 3.56641003,-12.82988 9.25390003,-18.66797 3.6786397,-3.67859 3.6786397,-3.67859 4.2499997,-8.75 -0.16758,-0.63938 -0.33515,-1.27875 -0.50781,-1.9375 -2.13297,-8.41171 -0.7198,-16.70331 3.44531,-24.1875 6.16274,-9.687059 16.964979,-14.208178 27.785158,-16.621093 2.400685,-0.489592 4.802523,-0.950833 7.214843,-1.378907 -0.424101,-0.377695 -0.848203,-0.75539 -1.285156,-1.144531 -9.1877,-8.622302 -15.447695,-19.126359 -16.089844,-31.917969 0.808499,-8.489238 3.149425,-15.880886 9.375,-21.9375 7.777975,-5.691201 14.915355,-8.351068 24.5,-8.249999 1.100215,-0.0116 1.100215,-0.0116 2.222657,-0.02344 4.474202,0.01601 8.06363,0.593286 12.277343,2.273438 0.226875,-0.680625 0.45375,-1.36125 0.6875,-2.0625 3.885929,-8.697079 9.879535,-13.7240699 18.687498,-17.3125003 10.33338,-1.7816143 19.54583,-0.9151311 28.29297,5.2578145 z"
     fill="#d2a8fd"
     id="path2" />
  <path
     d="m 130.17383,6.2922332 c 6.18786,5.2236358 10.31043,11.1479258 14.33203,18.1171868 0.99,1.485 0.99,1.485 2,3 0.49307,-0.908789 0.49307,-0.908789 0.9961,-1.835937 6.17779,-10.882291 13.42651,-19.0703051 24.7539,-24.4765623 7.99278,-1.69078 16.97844,-1.7864786 24.25,2.3125 2.78254,2.2284349 5.37143,4.5611013 7.9336,7.0390623 1.91207,2.005139 1.91207,2.005139 4.0664,2.960938 1.70404,-0.416543 3.39004,-0.908239 5.0625,-1.4375 9.58063,-2.7070254 18.27687,-2.253649 27.13672,2.65625 7.49163,5.137116 11.73982,12.003407 13.80078,20.781249 0.96101,10.034745 -0.45354,18.611386 -4,28 2.59721,1.298603 3.52624,0.760206 6.3125,0.0625 11.18408,-2.356242 21.94892,-1.876789 32,3.8125 7.5631,5.980123 12.39398,12.770493 13.6875,22.5 0.52223,11.22001 -3.54178,21.0411 -10.62891,29.58984 -4.23255,4.48788 -9.14512,7.80003 -14.37109,11.03516 0.66,0.47437 1.32,0.94875 2,1.4375 8.79699,7.51409 15.01884,15.75087 16.19141,27.47656 0.45204,8.25341 -2.10539,15.88237 -7.19141,22.39844 -9.59599,10.04999 -22.88967,11.85718 -36,12.6875 0.79664,0.94359 0.79664,0.94359 1.60938,1.90625 8.25823,10.00633 12.98166,19.03639 12.70703,32.21875 -0.83751,7.60991 -3.68863,14.61425 -9.31641,19.875 -8.90904,6.38558 -17.07008,8.94631 -28,8 -2.02162,-0.49682 -4.04243,-0.99691 -6.0625,-1.5 -3.68743,-0.69494 -5.21848,-0.94101 -8.45312,1.04297 -1.53175,1.43014 -3.02622,2.90127 -4.48047,4.41015 -4.75781,4.85983 -10.73885,5.63094 -17.24219,6.03906 -9.55075,0.027 -17.37044,-3.81428 -24.2539,-10.36328 -10.50782,-11.31743 -10.50782,-11.31743 -10.50782,-17.6289 -0.66,0 -1.32,0 -2,0 -0.10183,0.71543 -0.20367,1.43086 -0.30859,2.16797 -2.2077,9.04283 -10.00599,18.32704 -17.87109,23.17578 -8.26004,4.23592 -17.44635,5.18306 -26.52735,3.00781 -9.18295,-3.76324 -14.687221,-10.19927 -19.261718,-18.80078 -1.03125,-2.55078 -1.03125,-2.55078 -1.03125,-6.55078 -0.943593,0.5066 -0.943593,0.5066 -1.90625,1.02343 -10.894645,5.67703 -21.709475,8.08016 -34.003906,5.32422 -9.264084,-3.33621 -15.027182,-9.10621 -19.179687,-17.91797 -3.80287,-10.15186 -1.814127,-19.59263 2.089843,-29.42968 4.311828,-8.31183 4.311828,-8.31183 7,-11 -1.956797,-0.12955 -1.956797,-0.12955 -3.953125,-0.26172 -12.013796,-0.91556 -24.385656,-2.00528 -33.5117157,-10.83985 -6.317,-7.81185 -8.45495003,-15.37046 -7.97656003,-25.35546 1.01079003,-8.11323 3.56641003,-12.82988 9.25390003,-18.66797 3.6786397,-3.67859 3.6786397,-3.67859 4.2499997,-8.75 -0.16758,-0.63938 -0.33515,-1.27875 -0.50781,-1.9375 -2.13297,-8.41171 -0.7198,-16.70331 3.44531,-24.1875 6.16274,-9.687059 16.964979,-14.208178 27.785158,-16.621093 2.400685,-0.489592 4.802523,-0.950833 7.214843,-1.378907 -0.424101,-0.377695 -0.848203,-0.75539 -1.285156,-1.144531 -9.1877,-8.622302 -15.447695,-19.126359 -16.089844,-31.917969 0.808499,-8.489238 3.149425,-15.880886 9.375,-21.9375 7.777975,-5.691201 14.915355,-8.351068 24.5,-8.249999 1.100215,-0.0116 1.100215,-0.0116 2.222657,-0.02344 4.474202,0.01601 8.06363,0.593286 12.277343,2.273438 0.226875,-0.680625 0.45375,-1.36125 0.6875,-2.0625 C 87.079291,9.64984 93.072897,4.6228491 101.88086,1.0344187 112.21424,-0.7471956 121.42669,0.1192876 130.17383,6.2922332 Z M 88.505862,12.409421 c -4.191672,6.6675 -7.190476,13.066663 -8,20.999999 -0.124044,-4.093469 0.366053,-7.958588 1,-11.999999 -9.332594,-2.575095 -21.039059,-2.586952 -29.8125,1.562499 -7.643467,4.562628 -12.794236,10.778725 -15.1875,19.4375 -1.475633,11.142541 1.992022,19.796757 8.285157,28.828125 2.929025,3.709655 6.281022,6.935737 9.714843,10.171875 1.003377,0.996613 2.004633,1.995389 3,3 -0.689648,-0.0232 -1.379297,-0.04641 -2.089843,-0.07031 -13.086299,-0.251314 -24.409547,2.872601 -34.148438,12.078125 -6.19414,7.004455 -7.3078,13.601115 -7.13281,22.792975 0.35797,3.08609 1.06257,5.39826 2.37109,8.19922 0.71543,-0.28617 1.43086,-0.57235 2.16797,-0.86719 4.27734,-1.71094 8.55469,-3.42187 12.832031,-5.13281 -0.750234,0.32871 -1.500471,0.65742 -2.273441,0.99609 -11.64993,5.41414 -20.0246997,12.3477 -25.7265597,24.00391 -2.34791,7.04373 -2.16572,16.45119 0.96484,23.26562 5.04411,8.45126 11.7536497,13.09406 21.2226597,15.54688 8.245856,1.69909 16.571206,2.06603 24.812501,0.1875 -1.013203,1.43279 -1.013203,1.43279 -2.046875,2.89453 -8.030785,11.54669 -13.753024,21.50216 -11.953125,36.10547 1.914139,7.3734 6.665382,14.24305 13.125,18.35156 9.489354,4.84934 19.38761,4.93101 29.625,2.08594 6.199195,-2.10697 11.170561,-5.35561 16.25,-9.4375 0,0.33 0,0.66 0,1 -0.99,0.66 -1.98,1.32 -3,2 1.537027,9.68327 5.575426,16.40881 13.093748,22.71093 5.46437,3.69517 9.75296,4.84369 16.21875,4.78907 0.75185,-0.004 1.50369,-0.007 2.27832,-0.0107 6.19263,-0.1849 10.48878,-1.63607 15.40918,-5.48926 0.86625,-0.55688 1.7325,-1.11375 2.625,-1.6875 6.65187,-6.47682 11.12185,-14.67741 14.375,-23.3125 0,-0.66 0,-1.32 0,-2 0.66,0 1.32,0 2,0 0.20303,0.80051 0.20303,0.80051 0.41016,1.61718 3.24849,11.2433 10.79915,20.97722 21.03516,26.76563 8.22489,3.68702 15.23764,3.73409 23.67968,0.67969 8.59151,-3.92029 13.62723,-10.31004 17.1836,-18.92188 5.07107,-15.70028 1.6003,-32.40003 -5.55078,-46.75 -4.66652,-8.94098 -9.97343,-16.89458 -16.75782,-24.39062 -1.19883,-1.37672 -1.19883,-1.37672 -2.42187,-2.78125 -3.32869,-3.78557 -6.43423,-7.31337 -10.57813,-10.21875 -1.0248,1.57974 -1.0248,1.57974 -2.07031,3.1914 -5.1013,7.08435 -13.16592,11.84517 -21.77783,13.28467 -3.0434,0.27397 -6.03397,0.38542 -9.08936,0.39893 -1.43738,0.0115 -1.43738,0.0115 -2.90381,0.0232 -6.81539,-0.22671 -11.52303,-2.10625 -17.15869,-5.89819 -0.17015,0.54189 -0.34031,1.08378 -0.51562,1.64209 -3.17811,10.03512 -6.50805,19.92329 -10.79688,29.54541 -0.33709,0.75909 -0.67418,1.51819 -1.02148,2.30029 -1.31979,2.89088 -2.40052,5.24671 -4.66602,7.51221 0.27675,-0.55237 0.55349,-1.10473 0.83863,-1.67383 10.96545,-19.29996 10.96545,-19.29996 14.16137,-40.32617 -1.97609,-1.36851 -3.98091,-2.69576 -6,-4 -10.11128,-11.17783 -11.48152,-23.51192 -11,-38 -5.61,-1.65 -11.22,-3.3 -16.999998,-5 6.052748,1.17692 12.031588,2.45263 17.999998,4 1.03597,-1.57347 2.05332,-3.15922 3.0625,-4.75 0.56848,-0.88172 1.13696,-1.76344 1.72266,-2.67188 1.37078,-2.41307 1.37078,-2.41307 1.17187,-4.63281 -1.32397,-2.69118 -3.13033,-4.2853 -5.33203,-6.32031 C 102.53761,95.801544 88.540138,78.743027 84.505862,61.409472 c 0.692227,1.597149 0.692227,1.597149 1.398438,3.226563 8.044172,18.088381 19.95271,34.371291 34.60156,47.773445 0.66,0 1.32,0 2,0 0.55946,-0.72574 1.11891,-1.45149 1.69532,-2.19922 5.83098,-7.08619 14.69229,-11.596306 23.75781,-12.660215 12.12334,-0.723671 20.91216,1.493591 30.54687,8.859375 17.36604,-18.105013 33.35051,-40.838632 34.3125,-66.8125 -0.30451,-11.392483 -3.30223,-20.932912 -11.23437,-29.187499 -7.03148,-6.5409075 -13.27592,-8.6073206 -22.86328,-8.3437503 -10.4156,1.113697 -17.55784,7.9076515 -23.96485,15.7187503 -3.66129,4.892897 -7.25,10.368242 -7.25,16.624999 -0.66,0 -1.32,0 -2,0 -0.11086,-0.715429 -0.22172,-1.430859 -0.33593,-2.167968 C 142.80373,22.150323 135.0764,12.12311 126.50586,6.4094207 113.59694,-1.2878248 98.593985,1.527242 88.505862,12.409421 Z"
     fill="#f0ba64"
     id="path4" />
  <path
     d="m 241.50586,17.409423 c 5.50722,4.755345 9.5876,10.789305 11,18 0.78258,12.792112 -1.52539,22.494984 -7,34 0.71285,-0.277148 1.4257,-0.554297 2.16016,-0.839844 12.22632,-4.623954 25.50007,-6.642183 37.83984,-1.160156 7.17198,3.880551 12.12731,10.199221 14.64063,17.984375 1.88337,10.563259 -0.84252,18.813402 -6.45313,27.703122 -11.95305,16.82281 -30.9328,23.14683 -50.57812,26.75391 -12.96072,2.00582 -38.35136,5.6876 -50.60938,-0.44141 -0.0488,-1.99941 -0.0364,-4.00033 0,-6 -0.50127,-9.94366 -5.9576,-19.9576 -13,-27 0.51047,-0.52464 1.02094,-1.04929 1.54688,-1.58984 17.66546,-18.824372 32.06516,-42.07447 31.94165,-68.558106 -0.18803,-5.746209 -1.24601,-10.57504 -3.71118,-15.820801 -0.77735,-2.03125 -0.77735,-2.03125 0.22265,-5.03125 10.62734,-5.4139282 21.90625,-4.053331 32,2 z"
     fill="#d2a9fd"
     id="path6" />
  <path
     d="m 277.50586,133.40942 c 7.61475,5.38605 14.03075,12.6908 16,22 1.1562,9.33318 -0.73837,16.2146 -6,24 -6.06016,7.32765 -14.75012,10.61521 -24,12 -2.78075,0.0681 -5.53365,0.0948 -8.3125,0.0625 -0.74056,-0.005 -1.48113,-0.009 -2.24414,-0.0137 -1.81449,-0.0117 -3.62893,-0.0296 -5.44336,-0.0488 0.58008,0.67805 1.16016,1.3561 1.75781,2.05469 9.08955,10.82946 15.80727,20.08186 15.5586,34.62109 -0.73353,7.70661 -3.88925,13.89706 -9.31641,19.32422 -7.345,5.97849 -15.80848,7.52063 -25.08203,7.30469 -4.2392,-0.44265 -8.00755,-1.64573 -11.91797,-3.30469 0.29649,-0.71156 0.59297,-1.42312 0.89844,-2.15625 5.93299,-15.31638 5.46637,-30.81014 -0.76025,-45.9375 -2.13848,-4.76846 -4.57172,-9.35631 -7.13819,-13.90625 -0.54527,-0.97582 -1.09055,-1.95164 -1.65234,-2.95703 -4.46164,-7.4506 -10.1046,-13.85072 -15.84033,-20.33008 -2.53278,-2.87819 -5.01923,-5.79607 -7.50733,-8.71289 0.34934,-0.56847 0.69867,-1.13695 1.0586,-1.72265 0.45503,-0.77215 0.91007,-1.5443 1.3789,-2.33985 0.45246,-0.7541 0.90492,-1.5082 1.3711,-2.28515 1.43658,-3.19816 1.74941,-6.18915 2.1914,-9.65235 1.83438,0.0314 1.83438,0.0314 3.70581,0.0635 4.64636,0.0738 9.29267,0.11881 13.93946,0.15625 1.99064,0.0198 3.98124,0.0469 5.97167,0.082 18.16391,0.3123 34.91386,-1.41998 51.79712,-8.36426 3.79485,-1.37577 5.82337,-1.457 9.58594,0.0625 z"
     fill="#d2a9fd"
     id="path8" />
  <path
     d="m 130.17383,6.2922332 c 6.18786,5.2236358 10.31043,11.1479258 14.33203,18.1171868 0.99,1.485 0.99,1.485 2,3 0.49307,-0.908789 0.49307,-0.908789 0.9961,-1.835937 6.17779,-10.882291 13.42651,-19.0703051 24.7539,-24.4765623 7.99278,-1.69078 16.97844,-1.7864786 24.25,2.3125 2.78254,2.2284349 5.37143,4.5611013 7.9336,7.0390623 1.91207,2.005139 1.91207,2.005139 4.0664,2.960938 1.70404,-0.416543 3.39004,-0.908239 5.0625,-1.4375 9.58063,-2.7070254 18.27687,-2.253649 27.13672,2.65625 7.49163,5.137116 11.73982,12.003407 13.80078,20.781249 0.96101,10.034745 -0.45354,18.611386 -4,28 2.59721,1.298603 3.52624,0.760206 6.3125,0.0625 11.18408,-2.356242 21.94892,-1.876789 32,3.8125 7.5631,5.980123 12.39398,12.770493 13.6875,22.5 0.52223,11.22001 -3.54178,21.0411 -10.62891,29.58984 -4.23255,4.48788 -9.14512,7.80003 -14.37109,11.03516 0.66,0.47437 1.32,0.94875 2,1.4375 8.79699,7.51409 15.01884,15.75087 16.19141,27.47656 0.45204,8.25341 -2.10539,15.88237 -7.19141,22.39844 -9.59599,10.04999 -22.88967,11.85718 -36,12.6875 0.79664,0.94359 0.79664,0.94359 1.60938,1.90625 8.25823,10.00633 12.98166,19.03639 12.70703,32.21875 -0.83751,7.60991 -3.68863,14.61425 -9.31641,19.875 -8.90904,6.38558 -17.07008,8.94631 -28,8 -2.02162,-0.49682 -4.04243,-0.99691 -6.0625,-1.5 -3.68743,-0.69494 -5.21848,-0.94101 -8.45312,1.04297 -1.53175,1.43014 -3.02622,2.90127 -4.48047,4.41015 -4.75781,4.85983 -10.73885,5.63094 -17.24219,6.03906 -9.55075,0.027 -17.37044,-3.81428 -24.2539,-10.36328 -10.50782,-11.31743 -10.50782,-11.31743 -10.50782,-17.6289 -0.66,0 -1.32,0 -2,0 -0.10183,0.71543 -0.20367,1.43086 -0.30859,2.16797 -2.2077,9.04283 -10.00599,18.32704 -17.87109,23.17578 -8.26004,4.23592 -17.44635,5.18306 -26.52735,3.00781 -9.18295,-3.76324 -14.687221,-10.19927 -19.261718,-18.80078 -1.03125,-2.55078 -1.03125,-2.55078 -1.03125,-6.55078 -0.943593,0.5066 -0.943593,0.5066 -1.90625,1.02343 -10.894645,5.67703 -21.709475,8.08016 -34.003906,5.32422 -9.264084,-3.33621 -15.027182,-9.10621 -19.179687,-17.91797 -3.80287,-10.15186 -1.814127,-19.59263 2.089843,-29.42968 4.311828,-8.31183 4.311828,-8.31183 7,-11 -1.956797,-0.12955 -1.956797,-0.12955 -3.953125,-0.26172 -12.013796,-0.91556 -24.385656,-2.00528 -33.5117157,-10.83985 -6.317,-7.81185 -8.45495003,-15.37046 -7.97656003,-25.35546 1.01079003,-8.11323 3.56641003,-12.82988 9.25390003,-18.66797 3.6786397,-3.67859 3.6786397,-3.67859 4.2499997,-8.75 -0.16758,-0.63938 -0.33515,-1.27875 -0.50781,-1.9375 -2.13297,-8.41171 -0.7198,-16.70331 3.44531,-24.1875 6.16274,-9.687059 16.964979,-14.208178 27.785158,-16.621093 2.400685,-0.489592 4.802523,-0.950833 7.214843,-1.378907 -0.424101,-0.377695 -0.848203,-0.75539 -1.285156,-1.144531 -9.1877,-8.622302 -15.447695,-19.126359 -16.089844,-31.917969 0.808499,-8.489238 3.149425,-15.880886 9.375,-21.9375 7.777975,-5.691201 14.915355,-8.351068 24.5,-8.249999 1.100215,-0.0116 1.100215,-0.0116 2.222657,-0.02344 4.474202,0.01601 8.06363,0.593286 12.277343,2.273438 0.226875,-0.680625 0.45375,-1.36125 0.6875,-2.0625 C 87.079291,9.64984 93.072897,4.6228491 101.88086,1.0344187 112.21424,-0.7471956 121.42669,0.1192876 130.17383,6.2922332 Z M 88.505862,12.409421 c -4.191672,6.6675 -7.190476,13.066663 -8,20.999999 -0.124044,-4.093469 0.366053,-7.958588 1,-11.999999 -9.332594,-2.575095 -21.039059,-2.586952 -29.8125,1.562499 -7.643467,4.562628 -12.794236,10.778725 -15.1875,19.4375 -1.475633,11.142541 1.992022,19.796757 8.285157,28.828125 2.929025,3.709655 6.281022,6.935737 9.714843,10.171875 1.003377,0.996613 2.004633,1.995389 3,3 -0.689648,-0.0232 -1.379297,-0.04641 -2.089843,-0.07031 -13.086299,-0.251314 -24.409547,2.872601 -34.148438,12.078125 -6.19414,7.004455 -7.3078,13.601115 -7.13281,22.792975 0.35797,3.08609 1.06257,5.39826 2.37109,8.19922 0.71543,-0.28617 1.43086,-0.57235 2.16797,-0.86719 4.27734,-1.71094 8.55469,-3.42187 12.832031,-5.13281 -0.750234,0.32871 -1.500471,0.65742 -2.273441,0.99609 -11.64993,5.41414 -20.0246997,12.3477 -25.7265597,24.00391 -2.34791,7.04373 -2.16572,16.45119 0.96484,23.26562 5.04411,8.45126 11.7536497,13.09406 21.2226597,15.54688 8.245856,1.69909 16.571206,2.06603 24.812501,0.1875 -1.013203,1.43279 -1.013203,1.43279 -2.046875,2.89453 -8.030785,11.54669 -13.753024,21.50216 -11.953125,36.10547 1.914139,7.3734 6.665382,14.24305 13.125,18.35156 9.489354,4.84934 19.38761,4.93101 29.625,2.08594 6.199195,-2.10697 11.170561,-5.35561 16.25,-9.4375 0,0.33 0,0.66 0,1 -0.99,0.66 -1.98,1.32 -3,2 1.537027,9.68327 5.575426,16.40881 13.093748,22.71093 5.46437,3.69517 9.75296,4.84369 16.21875,4.78907 0.75185,-0.004 1.50369,-0.007 2.27832,-0.0107 6.19263,-0.1849 10.48878,-1.63607 15.40918,-5.48926 0.86625,-0.55688 1.7325,-1.11375 2.625,-1.6875 6.65187,-6.47682 11.12185,-14.67741 14.375,-23.3125 0,-0.66 0,-1.32 0,-2 0.66,0 1.32,0 2,0 0.20303,0.80051 0.20303,0.80051 0.41016,1.61718 3.24849,11.2433 10.79915,20.97722 21.03516,26.76563 8.22489,3.68702 15.23764,3.73409 23.67968,0.67969 8.59151,-3.92029 13.62723,-10.31004 17.1836,-18.92188 5.07107,-15.70028 1.6003,-32.40003 -5.55078,-46.75 -4.66652,-8.94098 -9.97343,-16.89458 -16.75782,-24.39062 -1.19883,-1.37672 -1.19883,-1.37672 -2.42187,-2.78125 -3.32869,-3.78557 -6.43423,-7.31337 -10.57813,-10.21875 -1.0248,1.57974 -1.0248,1.57974 -2.07031,3.1914 -5.1013,7.08435 -13.16592,11.84517 -21.77783,13.28467 -3.0434,0.27397 -6.03397,0.38542 -9.08936,0.39893 -1.43738,0.0115 -1.43738,0.0115 -2.90381,0.0232 -6.81539,-0.22671 -11.52303,-2.10625 -17.15869,-5.89819 -0.17015,0.54189 -0.34031,1.08378 -0.51562,1.64209 -3.17811,10.03512 -6.50805,19.92329 -10.79688,29.54541 -0.33709,0.75909 -0.67418,1.51819 -1.02148,2.30029 -1.31979,2.89088 -2.40052,5.24671 -4.66602,7.51221 0.27675,-0.55237 0.55349,-1.10473 0.83863,-1.67383 10.96545,-19.29996 10.96545,-19.29996 14.16137,-40.32617 -1.97609,-1.36851 -3.98091,-2.69576 -6,-4 -10.11128,-11.17783 -11.48152,-23.51192 -11,-38 -5.61,-1.65 -11.22,-3.3 -16.999998,-5 6.052748,1.17692 12.031588,2.45263 17.999998,4 1.03597,-1.57347 2.05332,-3.15922 3.0625,-4.75 0.56848,-0.88172 1.13696,-1.76344 1.72266,-2.67188 1.37078,-2.41307 1.37078,-2.41307 1.17187,-4.63281 -1.32397,-2.69118 -3.13033,-4.2853 -5.33203,-6.32031 C 102.53761,95.801544 88.540138,78.743027 84.505862,61.409472 c 0.692227,1.597149 0.692227,1.597149 1.398438,3.226563 8.044172,18.088381 19.95271,34.371291 34.60156,47.773445 0.66,0 1.32,0 2,0 0.55946,-0.72574 1.11891,-1.45149 1.69532,-2.19922 5.83098,-7.08619 14.69229,-11.596306 23.75781,-12.660215 12.12334,-0.723671 20.91216,1.493591 30.54687,8.859375 17.36604,-18.105013 33.35051,-40.838632 34.3125,-66.8125 -0.30451,-11.392483 -3.30223,-20.932912 -11.23437,-29.187499 -7.03148,-6.5409075 -13.27592,-8.6073206 -22.86328,-8.3437503 -10.4156,1.113697 -17.55784,7.9076515 -23.96485,15.7187503 -3.66129,4.892897 -7.25,10.368242 -7.25,16.624999 -0.66,0 -1.32,0 -2,0 -0.11086,-0.715429 -0.22172,-1.430859 -0.33593,-2.167968 C 142.80373,22.150323 135.0764,12.12311 126.50586,6.4094207 113.59694,-1.2878248 98.593985,1.527242 88.505862,12.409421 Z m 119.999998,4 c 0.20496,0.603281 0.40992,1.206562 0.6211,1.828125 0.26941,0.799218 0.53882,1.598437 0.8164,2.421875 0.26684,0.788906 0.53367,1.577812 0.8086,2.390624 5.53768,17.330354 0.74106,35.281372 -7.3086,50.921875 -6.37782,11.805183 -14.78974,22.645536 -23.9375,32.4375 0.36352,0.53367 0.72703,1.06734 1.10157,1.61719 1.06752,1.58212 2.12249,3.17275 3.16796,4.76953 1.10757,1.6726 2.24832,3.32398 3.42969,4.94531 4.2639,6.2255 5.00066,11.35025 5.09766,18.85937 0.067,0.92684 0.13406,1.85368 0.20312,2.8086 17.62619,8.81309 52.71375,1.2494 70.20313,-4.30469 14.79419,-5.03793 26.96925,-13.97523 34.79687,-27.69531 3.49757,-7.18251 4.38464,-15.008199 2.23828,-22.746093 -2.90341,-7.723299 -6.99256,-13.206871 -14.23828,-17.253907 -10.45351,-4.547368 -22.15442,-3.969433 -33,-1 -2.36738,0.936256 -4.67624,1.95674 -7,3 0.42152,-0.952617 0.84305,-1.905234 1.27735,-2.886718 0.55364,-1.266814 1.10701,-2.533748 1.66015,-3.800782 0.27779,-0.625839 0.55559,-1.251679 0.8418,-1.896484 3.87704,-8.921867 5.31417,-20.602266 1.9707,-29.978516 -4.52616,-8.890664 -9.61112,-14.258046 -18.97265,-17.707031 -8.65024,-2.275096 -16.07022,-1.090055 -23.77735,3.269532 z m -86,96.999999 c -0.63422,0.76054 -1.26843,1.52109 -1.92187,2.30469 -6.46985,9.09649 -6.80802,19.01676 -5.59424,29.86572 1.82372,9.99852 7.57544,18.29258 15.77393,24.19775 10.12315,6.2655 22.25246,6.802 33.74218,4.63184 9.12431,-2.64549 15.98692,-7.67874 20.875,-15.8125 1.0866,-2.03919 2.1355,-4.09948 3.125,-6.1875 0.34724,-0.62069 0.69449,-1.24137 1.05225,-1.88086 3.41132,-7.62758 2.43162,-19.8613 0.21533,-27.71436 -3.88166,-9.85546 -10.83689,-17.68939 -20.58789,-21.96337 -17.05505,-6.014855 -35.7705,-2.2881 -46.67969,12.55859 z m 142.5,21.25 c -16.73232,6.62487 -34.03072,7.31417 -51.8125,7 -2.02407,-0.0201 -4.04816,-0.0384 -6.07226,-0.0547 -4.87226,-0.0433 -9.74351,-0.11187 -14.61524,-0.19531 -0.13195,0.61919 -0.26391,1.23837 -0.39987,1.87633 -0.17597,0.81159 -0.35193,1.62318 -0.53323,2.45936 -0.17321,0.80481 -0.34642,1.60963 -0.52487,2.43883 -0.92095,3.78128 -2.68734,6.82522 -4.54203,10.22548 0.60586,0.57105 1.21172,1.14211 1.83594,1.73047 18.50674,17.90883 34.78047,41.407 35.53906,67.89453 -0.20082,8.21355 -2.22728,15.82049 -5.375,23.375 10.25605,4.35105 19.9018,4.16127 30.30469,0.25 7.99398,-3.70736 11.3694,-9.26508 14.69531,-17.25 2.5456,-7.6368 1.72387,-16.26574 -1.59766,-23.52344 -4.00368,-7.07057 -9.19175,-13.27823 -14.40234,-19.47656 1.54108,0.0522 1.54108,0.0522 3.11328,0.10547 12.91364,0.30464 25.11663,-1.08331 35.14063,-10.125 5.88991,-6.68051 8.70766,-14.30098 8.19922,-23.16407 -1.67316,-10.39956 -8.27162,-18.51528 -16.42579,-24.78515 -4.57195,-2.32562 -8.10766,-0.75348 -12.52734,1.21875 z"
     fill="#09070b"
     id="path10" />
  <path
     d="m 12.505861,113.40942 c 0.66,0 1.32,0 2,0 0.66,4.62 1.32,9.24 2,14 1.446328,-0.77537 1.446328,-0.77537 2.921875,-1.5664 1.275712,-0.666 2.551772,-1.33133 3.828125,-1.9961 0.634219,-0.34224 1.268437,-0.68449 1.921875,-1.03711 4.779079,-2.46421 4.779079,-2.46421 7.78125,-2.11523 0.765703,0.35385 0.765703,0.35385 1.546875,0.71484 -1.142754,0.41959 -1.142754,0.41959 -2.308594,0.84766 -11.537283,4.47952 -21.157849,11.07711 -27.0664057,22.21484 -2.938911,7.18128 -2.88934,16.09608 -0.4375,23.4375 4.0589026,7.83788 9.3246847,12.56767 17.5859377,15.47657 9.36871,2.52506 18.614193,2.31472 28.226562,2.02343 -1.681575,3.5984 -3.794688,6.84759 -5.9375,10.1875 -5.929347,9.55935 -8.319564,17.42831 -7.0625,28.8125 1.843544,6.89506 5.932217,13.46053 12.058594,17.28516 9.538178,4.88284 19.380899,5.01773 29.691406,2.15234 5.450192,-1.8456 9.727329,-4.48934 14.226562,-8.04687 2.023438,-1.39063 2.023438,-1.39063 5.023438,-1.39063 -1.289652,1.37563 -2.626893,2.70766 -4,4 -0.66,0 -1.32,0 -2,0 3.535447,10.6878 7.671849,19.85614 18.148439,25.14844 7.8552,2.3458 17.74857,2.55029 25.10156,-1.33594 3.3038,-2.27017 6.12962,-4.76719 8.75,-7.8125 0.46922,-0.54012 0.93844,-1.08023 1.42187,-1.63672 4.75482,-5.84547 7.61841,-12.47827 10.57813,-19.36328 0.66,0 1.32,0 2,0 0.4009,0.89461 0.8018,1.78922 1.21484,2.71094 5.61095,12.09777 12.15651,21.00966 24.59766,26.53906 9.2588,2.17854 16.96666,0.52713 25.1875,-4.25 6.71798,-5.54806 10.702,-13.44279 12,-22 1.42807,-17.48613 -2.04957,-31.04298 -11.14038,-45.94995 -1.00413,-1.65348 -1.93894,-3.34869 -2.85962,-5.05005 0.33,-0.66 0.66,-1.32 1,-2 11.0281,14.90612 17.72808,32.24458 16,51 -1.09455,6.29927 -2.50824,11.60098 -6,17 7.6381,1.97537 15.13329,2.57477 23,3 -2,2 -2,2 -3.96094,2.26562 -0.79664,-0.005 -1.59328,-0.0103 -2.41406,-0.0156 -0.89332,-0.005 -1.78664,-0.0103 -2.70703,-0.0156 -3.12842,-0.25127 -5.93989,-0.9713 -8.98047,-1.73437 -3.68743,-0.69494 -5.21849,-0.94101 -8.45313,1.04297 -1.53174,1.43015 -3.02621,2.90127 -4.48046,4.41015 -4.75781,4.85983 -10.73885,5.63095 -17.24219,6.03907 -9.55075,0.027 -17.37045,-3.81429 -24.25391,-10.36328 -10.50781,-11.31748 -10.50781,-11.31748 -10.50781,-17.62896 -0.66,0 -1.32,0 -2,0 -0.10184,0.71543 -0.20367,1.43086 -0.30859,2.16797 -2.2077,9.04283 -10.006,18.32704 -17.8711,23.17578 -8.26004,4.23592 -17.44634,5.18306 -26.52734,3.00781 -9.18295,-3.76324 -14.687222,-10.19926 -19.261719,-18.80078 -1.03125,-2.55078 -1.03125,-2.55078 -1.03125,-6.55078 -0.943594,0.5066 -0.943594,0.5066 -1.90625,1.02344 -10.894645,5.67703 -21.709475,8.08015 -34.003906,5.32422 -9.264084,-3.33622 -15.027183,-9.10622 -19.179688,-17.91797 -3.80287,-10.15187 -1.814126,-19.59263 2.089844,-29.42969 4.311828,-8.31182 4.311828,-8.31182 7,-11 -1.956797,-0.12955 -1.956797,-0.12955 -3.953125,-0.26172 C 29.538941,188.23215 17.167079,187.14243 8.0410176,178.30786 1.7240253,170.49601 -0.41392973,162.9374 0.06445527,152.95239 1.0698093,144.88287 3.4081063,140.33564 9.3183613,134.78442 c 3.0811437,-3.14155 4.4496877,-5.2085 4.5468747,-9.5625 -0.167307,-3.98638 -0.6912,-7.88148 -1.359375,-11.8125 z"
     fill="#0e0b10"
     id="path12" />
  <path
     d="m 82.505861,56.409423 c 2.331934,2.331934 2.949605,4.175891 4.125,7.25 7.167544,17.490478 20.048369,37.781777 35.874999,48.749997 0.24621,-0.59941 0.49242,-1.19882 0.7461,-1.8164 1.47229,-2.5639 2.83426,-3.54076 5.3164,-5.1211 0.71285,-0.46277 1.4257,-0.92554 2.16016,-1.40234 0.91652,-0.54785 1.83304,-1.0957 2.77734,-1.66016 0.96039,-0.63192 0.96039,-0.63192 1.94019,-1.27661 5.93877,-3.681341 10.80794,-4.618716 17.74731,-4.535887 0.95665,0.0019 1.91329,0.0039 2.89893,0.0059 9.0469,0.310504 15.32963,3.390888 22.41357,8.806597 0.59168,-0.66386 1.18336,-1.32773 1.79297,-2.01172 3.97123,-4.437667 7.92683,-8.846145 12.20703,-12.988277 -2.09711,4.862528 -5.70505,8.542534 -9.10156,12.539067 -2.10204,2.20684 -2.10204,2.20684 -1.89844,4.46093 1.23017,2.14184 2.49148,4.22802 3.8125,6.3125 0.71507,1.14179 1.42992,2.28371 2.14453,3.42578 1.21479,1.93948 2.46673,3.85763 3.79297,5.72266 1.67624,3.40487 1.54324,6.08034 1.4375,9.85156 -0.0406,1.88139 -0.0406,1.88139 -0.082,3.80078 -0.0522,1.42893 -0.0522,1.42893 -0.1055,2.88672 27.35068,1.91695 54.28739,1.98198 80,-9 0.66,0.66 1.32,1.32 2,2 -3.13835,1.12622 -6.28683,2.2213 -9.4375,3.3125 -0.85916,0.30873 -1.71832,0.61746 -2.60352,0.93555 -14.4101,4.94209 -28.50386,6.21805 -43.62939,6.0332 -2.61912,-0.0317 -5.23764,-0.0411 -7.85693,-0.0469 -1.6836,-0.009 -3.3672,-0.0195 -5.05078,-0.0312 -1.16092,-0.006 -1.16092,-0.006 -2.34528,-0.0129 -3.8085,-0.0504 -7.37284,-0.27576 -11.0766,-1.19025 0.10313,0.94875 0.20625,1.8975 0.3125,2.875 0.0546,5.31357 -2.77113,9.61407 -5.3125,14.125 0.90879,0.85658 0.90879,0.85658 1.83594,1.73047 6.8219,6.6015 12.54425,13.64094 18.16406,21.26953 -0.33,0.66 -0.66,1.32 -1,2 -0.54527,-0.67805 -1.09055,-1.35609 -1.65234,-2.05469 -8.7159,-11.48709 -8.7159,-11.48709 -19.34766,-20.94531 -0.50918,0.87914 -1.01836,1.75828 -1.54297,2.66406 -4.42807,6.57544 -12.07886,10.81918 -19.45703,13.33594 -4.04005,0.7313 -7.96128,0.93289 -12.0625,0.9375 -1.44403,0.006 -1.44403,0.006 -2.91723,0.0112 -6.55187,-0.25427 -10.84958,-1.93178 -16.02027,-5.9487 -0.61875,1.85238 -0.61875,1.85238 -1.25,3.74219 -3.0113,8.8847 -6.17376,17.66085 -9.9375,26.25781 -0.32033,0.74621 -0.64066,1.49241 -0.9707,2.26123 -1.77611,3.96328 -3.46772,6.86594 -6.8418,9.73877 1.25612,-4.13554 2.85951,-7.90166 4.76758,-11.76074 3.2249,-6.52515 6.0579,-13.03761 8.23242,-19.98926 0.2073,-0.65468 0.4146,-1.30937 0.62818,-1.98389 1.59154,-5.08059 1.59154,-5.08059 1.37182,-10.26611 -1.97516,-1.36987 -3.98021,-2.69684 -6,-4 -8.48412,-9.27354 -11.01168,-19.10025 -10.50928,-31.39428 0.1334,-2.20723 0.29861,-4.4047 0.50928,-6.60572 -1.20398,-0.26554 -2.40797,-0.53109 -3.64844,-0.80468 -1.5756,-0.35639 -3.15112,-0.71318 -4.72656,-1.07032 -0.79406,-0.17402 -1.58812,-0.34804 -2.40625,-0.52734 -0.76055,-0.17402 -1.52109,-0.34805 -2.30469,-0.52734 -0.70173,-0.15711 -1.403463,-0.31421 -2.126461,-0.47608 -1.787598,-0.59424 -1.787598,-0.59424 -3.787598,-2.59424 7.253989,0.47567 13.268119,2.29467 19.999999,5 0.2952,-0.77214 0.59039,-1.54429 0.89453,-2.33984 1.10547,-2.66016 1.10547,-2.66016 2.79297,-5.22266 1.49679,-2.25399 1.49679,-2.25399 1.16797,-4.3164 -1.1704,-2.90195 -2.93537,-4.37476 -5.23047,-6.4961 C 100.64431,94.93375 88.696134,78.253683 82.505861,60.409423 c 0,-1.32 0,-2.64 0,-4 z m 39.999999,56.999997 c -0.63422,0.76055 -1.26844,1.5211 -1.92187,2.30469 -6.46985,9.0965 -6.80802,19.01676 -5.59424,29.86572 1.82371,9.99852 7.57544,18.29259 15.77392,24.19775 10.12316,6.2655 22.25247,6.80201 33.74219,4.63184 9.12431,-2.64549 15.98692,-7.67874 20.875,-15.8125 1.08659,-2.03919 2.13549,-4.09947 3.125,-6.1875 0.34724,-0.62068 0.69448,-1.24136 1.05225,-1.88086 3.41131,-7.62757 2.43162,-19.8613 0.21533,-27.71435 -3.88166,-9.85546 -10.83689,-17.6894 -20.58789,-21.96338 -17.05505,-6.014852 -35.7705,-2.288097 -46.67969,12.55859 z"
     fill="#322730"
     id="path14" />
  <path
     d="m 196.50586,3.4094232 c 2.78253,2.2284349 5.37143,4.5611013 7.93359,7.0390628 1.91208,2.005139 1.91208,2.005139 4.06641,2.960937 1.70404,-0.416543 3.39004,-0.908239 5.0625,-1.4375 9.58062,-2.7070249 18.27687,-2.2536485 27.13672,2.65625 5.6955,3.905488 10.67865,9.300139 12.39063,16.136719 0.28515,2.207031 0.28515,2.207031 0.41015,5.644531 -2.97759,-1.488795 -3.09082,-3.893216 -4.15625,-6.871094 -2.84699,-7.18338 -7.54293,-11.238254 -14.40625,-14.378906 -7.29118,-2.749133 -14.84897,-2.959811 -22.1875,-0.25 -1.60875,0.7425 -1.60875,0.7425 -3.25,1.5 0.20496,0.603281 0.40992,1.206563 0.6211,1.828125 0.26941,0.799219 0.53882,1.598437 0.8164,2.421875 0.26684,0.788906 0.53367,1.577812 0.8086,2.390625 5.32555,16.666503 1.1087,34.031723 -6.51417,49.191162 -3.39627,6.478453 -7.04844,12.524003 -11.73193,18.168213 0,-4.06673 2.00876,-6.493525 4.125,-9.8125 9.99136,-16.229565 16.47912,-33.5717 12.75,-52.75 -2.67854,-10.639071 -8.7093,-17.738083 -18,-23.3124998 -6.95483,-2.6158949 -15.28838,-2.1923737 -22,0.8125 -1.29479,0.6815975 -2.58693,1.3682814 -3.875,2.0625 -0.99,0.33 -1.98,0.66 -3,1 0.9827,-2.5148682 1.66378,-3.782994 3.96094,-5.265625 9.2507,-3.7721318 20.02926,-4.8131976 29.03906,0.265625 z"
     fill="#1e1824"
     id="path16" />
  <path
     d="m 207.50586,183.40942 c 3.91345,3.39691 5.85232,7.16782 8.0625,11.75 0.33838,0.67805 0.67676,1.3561 1.02539,2.05469 7.45867,15.17702 10.18936,29.86813 5.86133,46.53906 -1.00653,2.81662 -2.32818,5.14977 -3.94922,7.65625 7.6381,1.97537 15.13329,2.57478 23,3 -2,2 -2,2 -3.96094,2.26563 -0.79664,-0.005 -1.59328,-0.0103 -2.41406,-0.0156 -0.89332,-0.005 -1.78664,-0.0103 -2.70703,-0.0156 -3.12842,-0.25127 -5.93989,-0.9713 -8.98047,-1.73437 -3.68743,-0.69494 -5.21848,-0.94101 -8.45312,1.04297 -1.53175,1.43015 -3.02622,2.90128 -4.48047,4.41016 -4.75781,4.85983 -10.73885,5.63094 -17.24219,6.03906 -9.55075,0.027 -17.37045,-3.81428 -24.25391,-10.36328 -10.50781,-11.31743 -10.50781,-11.31743 -10.50781,-16.62891 3.84411,1.28137 4.15218,2.59815 6.125,6.0625 5.54957,8.95843 12.47531,15.34964 22.875,17.9375 8.02907,1.35322 15.04938,-0.96099 22,-5 6.71798,-5.54806 10.702,-13.44279 12,-22 1.50934,-18.48116 -2.74604,-32.15621 -12.20703,-47.86718 -1.79297,-3.13282 -1.79297,-3.13282 -1.79297,-5.13282 z"
     fill="#1b1520"
     id="path18" />
  <path
     d="m 67.505861,18.409423 c -2.858091,1.5435 -5.543827,2.460285 -8.6875,3.25 -9.206724,2.752526 -14.570419,7.074738 -19.21875,15.480469 -3.009082,6.243846 -3.105039,13.282164 -1.410156,19.964843 3.8222,10.118521 10.261334,19.267973 19.316406,25.304688 0,0.66 0,1.32 0,2 -1.111172,0.09797 -2.222344,0.195937 -3.367188,0.296875 -12.776896,1.234851 -23.091126,3.444295 -32.632812,12.703125 -4.038868,4.915597 -5.784331,9.811137 -7,15.999997 -0.66,0 -1.32,0 -2,0 0.300136,-8.10366 3.271201,-14.327165 9.082031,-20.050778 9.069392,-7.417524 18.544956,-9.813746 29.917969,-11.949219 -0.424102,-0.377695 -0.848203,-0.755391 -1.285156,-1.144531 -9.1877,-8.622303 -15.447695,-19.126359 -16.089844,-31.917969 0.808499,-8.489238 3.149425,-15.880886 9.375,-21.9375 7.69956,-5.633824 14.491049,-8.327895 24,-8 z"
     fill="#08060a"
     id="path20" />
  <path
     d="m 113.50586,127.40942 c 0.66,0 1.32,0 2,0 -0.0168,0.55237 -0.0337,1.10473 -0.051,1.67383 -0.26363,13.32772 0.64299,25.14566 10.05102,35.32617 10.79116,10.09942 23.91186,10.40714 38,10 0,0.33 0,0.66 0,1 -3.49742,0.31627 -6.99678,0.5696 -10.5,0.8125 -0.98226,0.0896 -1.96453,0.17918 -2.97656,0.27149 -6.97557,0.44178 -11.08407,-0.63638 -16.52344,-5.08399 -0.4125,1.23493 -0.825,2.46985 -1.25,3.74219 -3.0113,8.8847 -6.17376,17.66085 -9.9375,26.25781 -0.32033,0.74621 -0.64066,1.49242 -0.9707,2.26123 -1.77611,3.96329 -3.46772,6.86594 -6.8418,9.73877 1.25612,-4.13554 2.85951,-7.90165 4.76758,-11.76074 3.2249,-6.52514 6.0579,-13.0376 8.23242,-19.98926 0.31095,-0.98202 0.31095,-0.98202 0.62818,-1.98388 1.59154,-5.08059 1.59154,-5.08059 1.37182,-10.26612 -1.97516,-1.36986 -3.98021,-2.69683 -6,-4 -8.48412,-9.27354 -11.01168,-19.10025 -10.50928,-31.39428 0.1334,-2.20723 0.29861,-4.4047 0.50928,-6.60572 z"
     fill="#413236"
     id="path22" />
  <path
     d="m 12.505861,113.40942 c 0.66,0 1.32,0 2,0 0.66,4.62 1.32,9.24 2,14 1.446328,-0.77537 1.446328,-0.77537 2.921875,-1.5664 1.275712,-0.666 2.551772,-1.33133 3.828125,-1.9961 0.634219,-0.34224 1.268437,-0.68449 1.921875,-1.03711 4.779079,-2.46421 4.779079,-2.46421 7.78125,-2.11523 0.765703,0.35385 0.765703,0.35385 1.546875,0.71484 -1.142754,0.41959 -1.142754,0.41959 -2.308594,0.84766 -11.512914,4.47006 -21.056737,11.05467 -27.0664057,22.08984 -2.782793,6.60051 -1.934712,14.05097 -1.625,21.0625 -0.99,-0.33 -1.98,-0.66 -3.00000003,-1 -0.841666,-17.53471 -0.841666,-17.53471 4.00000003,-25 1.5852717,-1.56109 3.1907866,-3.1018 4.8125,-4.625 3.0811437,-3.14155 4.4496877,-5.2085 4.5468747,-9.5625 -0.167307,-3.98638 -0.6912,-7.88148 -1.359375,-11.8125 z"
     fill="#130f17"
     id="path24" />
  <path
     d="m 105.50586,1.4094232 c 0,0.66 0,1.32 0,2 -1.7325,0.556875 -1.7325,0.556875 -3.5,1.125 -9.642169,3.7582356 -13.712805,9.2079468 -18.152343,18.3398438 -2.569393,6.740003 -2.480401,13.367127 -2.410156,20.472656 0.0045,0.874629 0.009,1.749258 0.01367,2.650391 0.01168,2.137399 0.02961,4.274764 0.04883,6.412109 -0.33,0 -0.66,0 -1,0 -1.220115,-4.782851 -1.183706,-9.473584 -1.1875,-14.375 -0.01225,-0.825 -0.02449,-1.65 -0.03711,-2.5 -0.0029,-1.218164 -0.0029,-1.218164 -0.0059,-2.460938 -0.0041,-0.727514 -0.0082,-1.455029 -0.01245,-2.204589 0.24296,-2.459473 0.24296,-2.459473 2.24296,-9.459473 -5.94,-0.33 -11.88,-0.66 -18,-1 5.699771,-2.849885 10.464386,-2.711751 16.5625,-1 0.804375,0.33 1.60875,0.66 2.4375,1 0.226875,-0.680625 0.45375,-1.36125 0.6875,-2.0625 3.383912,-7.573517 8.07842,-11.9005037 15.3125,-15.9374998 2.999999,-1 2.999999,-1 6.999999,-1 z"
     fill="#16121b"
     id="path26" />
  <path
     d="m 67.505861,18.409423 c -2.858091,1.5435 -5.543827,2.460285 -8.6875,3.25 -9.206724,2.752526 -14.570419,7.074738 -19.21875,15.480469 -3.081741,6.394612 -3.060399,13.946674 -1.09375,20.707031 0.33,0.845625 0.66,1.69125 1,2.5625 0.125,2.875 0.125,2.875 0,5 -4.076991,-4.076991 -5.143573,-11.404116 -5.375,-17.0625 0.808499,-8.489238 3.149425,-15.880886 9.375,-21.9375 7.69956,-5.633824 14.491049,-8.327895 24,-8 z"
     fill="#040305"
     id="path28" />
  <path
     d="m 274.50586,189.40942 c -4.45566,3.25916 -8.48109,3.70039 -13.8125,4.1875 -1.18239,0.12279 -1.18239,0.12279 -2.38867,0.24805 -1.93185,0.19904 -3.86522,0.38324 -5.79883,0.56445 0.84885,1.01321 0.84885,1.01321 1.71485,2.04688 1.10021,1.33805 1.10021,1.33805 2.22265,2.70312 0.7309,0.88172 1.4618,1.76344 2.21485,2.67188 1.67802,2.34143 2.435,3.77473 2.84765,6.57812 -3.5983,-1.19943 -3.94565,-2.10046 -5.875,-5.25 -1.81464,-2.85352 -3.54122,-5.36143 -6,-7.6875 -0.70125,-0.68062 -1.4025,-1.36125 -2.125,-2.0625 0,-0.66 0,-1.32 0,-2 1.57588,-0.0735 1.57588,-0.0735 3.1836,-0.14843 9.16707,-0.41804 9.16707,-0.41804 18.1914,-1.97657 3.625,-0.875 3.625,-0.875 5.625,0.125 z"
     fill="#0a080c"
     id="path30" />
  <path
     d="m 96.505861,233.40942 c 0.66,0.33 1.32,0.66 2,1 -1.289651,1.37563 -2.626893,2.70767 -4,4 -0.66,0 -1.32,0 -2,0 0.99,3.3 1.98,6.6 3,10 -0.99,-0.33 -1.98,-0.66 -3,-1 -0.33,-1.98 -0.66,-3.96 -1,-6 -0.891386,0.5066 -0.891386,0.5066 -1.800781,1.02344 -8.935774,4.80836 -17.152257,6.87222 -27.199219,4.97656 0,-0.33 0,-0.66 0,-1 0.966797,-0.098 1.933594,-0.19593 2.929688,-0.29687 12.55304,-1.44174 21.308023,-4.3085 31.070312,-12.70313 z"
     fill="#151019"
     id="path32" />
  <path
     d="m 194.76367,2.3625532 c 2.21088,1.3285108 2.79735,2.6896504 3.74219,5.046875 -0.57106,-0.28875 -1.14211,-0.5775 -1.73047,-0.875 -7.73117,-3.5398688 -15.72482,-4.8989884 -23.99219,-2.2539063 -2.15437,0.9563336 -4.20392,2.0114133 -6.27734,3.1289063 -0.99,0.33 -1.98,0.66 -3,1 0.9827,-2.5148682 1.66377,-3.782994 3.96094,-5.265625 9.23604,-3.7661525 17.83357,-3.9010207 27.29687,-0.78125 z"
     fill="#080609"
     id="path34" />
  <path
     d="m 39.505861,62.409423 c 1.525772,2.029781 3.04558,4.062427 4.542969,6.113281 3.582963,4.791469 7.283768,8.728673 11.953125,12.476563 0.496289,0.465351 0.992578,0.930703 1.503906,1.410156 0,0.66 0,1.32 0,2 -2.31,0 -4.62,0 -7,0 0.33,-0.99 0.66,-1.98 1,-3 C 51.058556,80.985321 50.611252,80.56122 50.150392,80.124267 39.789147,70.072313 39.789147,70.072313 39.193361,64.471923 c 0.103125,-0.680625 0.20625,-1.36125 0.3125,-2.0625 z"
     fill="#141018"
     id="path36" />
  <path
     d="m 275.50586,63.409423 c 8.0393,0.430677 12.84559,3.196083 18.8125,8.5 5.1875,5.928571 5.1875,5.928571 5.1875,9.5 -0.66,0 -1.32,0 -2,0 -1.04297,-1.574219 -1.04297,-1.574219 -2.1875,-3.6875 -4.76357,-7.837739 -11.15423,-10.16971 -19.8125,-12.3125 0,-0.66 0,-1.32 0,-2 z"
     fill="#120f16"
     id="path38" />
  <path
     d="m 1.5058613,165.40942 c 0.66,0 1.32,0 2,0 0.9346925,1.50623 1.7972893,3.05744 2.625,4.625 3.7956392,6.56795 8.6232387,10.13416 15.3749997,13.375 0,0.66 0,1.32 0,2 -7.980428,-1.9951 -13.2509731,-6.31526 -17.4999997,-13.25 -2.5,-4.38829 -2.5,-4.38829 -2.5,-6.75 z"
     fill="#08060a"
     id="path40" />
  <path
     d="m 274.50586,189.40942 c -6.01417,3.95218 -10.7632,4.14938 -17.8125,3.5625 -1.03931,-0.0783 -1.03931,-0.0783 -2.09961,-0.1582 -1.69643,-0.12869 -3.39224,-0.26566 -5.08789,-0.4043 0,-0.33 0,-0.66 0,-1 1.35932,-0.0735 1.35932,-0.0735 2.7461,-0.14843 8.31922,-0.49874 8.31922,-0.49874 16.5039,-1.97657 3.75,-0.875 3.75,-0.875 5.75,0.125 z"
     fill="#201a27"
     id="path42" />
  <path
     d="m 198.50586,5.4094232 c 10.52919,8.6067278 10.52919,8.6067278 11.75,14.8124998 0.12375,1.577812 0.12375,1.577812 0.25,3.1875 -1.5079,-2.006045 -3.01105,-4.014991 -4.5,-6.035156 -0.495,-0.669024 -0.99,-1.338047 -1.5,-2.027344 -0.495,-0.671601 -0.99,-1.343203 -1.5,-2.035156 -1.44045,-1.929033 -1.44045,-1.929033 -3.1875,-3.4609376 -1.3125,-1.4414062 -1.3125,-1.4414062 -1.3125,-4.4414062 z"
     fill="#17121c"
     id="path44" />
  <path
     d="m 93.505861,248.40942 c 3.418031,1.13935 4.003482,1.97411 6.0625,4.8125 0.506599,0.68707 1.013199,1.37414 1.535159,2.08203 1.31853,1.97965 2.39232,3.95496 3.40234,6.10547 -3.36488,-1.40872 -5.057093,-2.99655 -7.187499,-5.9375 -0.509179,-0.68965 -1.018359,-1.37929 -1.542968,-2.08984 -1.269532,-1.97266 -1.269532,-1.97266 -2.269532,-4.97266 z"
     fill="#08060a"
     id="path46" />
  <path
     d="m 79.505861,245.40942 c -2.845223,2.84523 -5.024538,2.6794 -9,3 -2.707135,-0.19843 -5.314161,-0.57592 -8,-1 0,-0.33 0,-0.66 0,-1 2.457438,-0.36174 4.915588,-0.71468 7.375,-1.0625 1.048008,-0.15565 1.048008,-0.15565 2.117188,-0.31445 5.28125,-0.73633 5.28125,-0.73633 7.507812,0.37695 z"
     fill="#221b29"
     id="path48" />
  <path
     d="m 162.50586,6.4094232 c 0.33,0.99 0.66,1.98 1,3 -2.31,1.9799998 -4.62,3.9599998 -7,5.9999998 0,-3 0,-3 1.3125,-4.605469 0.55688,-0.52207 1.11375,-1.0441402 1.6875,-1.5820308 0.55688,-0.5298047 1.11375,-1.0596094 1.6875,-1.6054688 0.64969,-0.5974804 0.64969,-0.5974804 1.3125,-1.2070312 z"
     fill="#120e16"
     id="path50" />
  <path
     d="m 281.50586,183.40942 c 0.66,0.33 1.32,0.66 2,1 -3.01887,3.48332 -5.56909,4.79157 -10,6 1,-3 1,-3 4,-4.625 0.99,-0.45375 1.98,-0.9075 3,-1.375 0.33,-0.33 0.66,-0.66 1,-1 z"
     fill="#0e0b11"
     id="path52" />
  <path
     d="m 156.50586,233.40942 c 0.66,0 1.32,0 2,0 0.66,1.98 1.32,3.96 2,6 -1.98,0 -3.96,0 -6,0 0.66,-1.98 1.32,-3.96 2,-6 z"
     fill="#151119"
     id="path54" />
  <path
     d="m 1.5058613,153.40942 c 0.33,0 0.66,0 1,0 0.33,3.96 0.66,7.92 1,12 -0.99,-0.33 -1.98,-0.66 -3.00000003,-1 0.33,-3.63 0.66000003,-7.26 1.00000003,-11 z"
     fill="#261e2d"
     id="path56" />
  <path
     d="m 42.505861,28.409423 c 0.33,0.66 0.66,1.32 1,2 -0.777343,1.726563 -0.777343,1.726563 -1.9375,3.625 -0.680625,1.11375 -1.36125,2.2275 -2.0625,3.375 -0.66,-0.33 -1.32,-0.66 -2,-1 1.185824,-3.375036 2.275737,-5.647227 5,-8 z"
     fill="#0f0c12"
     id="path58" />
  <path
     d="m 35.505861,222.40942 c 2.502985,2.93829 3.46931,5.17903 4,9 -0.99,-0.33 -1.98,-0.66 -3,-1 -0.33,-2.64 -0.66,-5.28 -1,-8 z"
     fill="#141018"
     id="path60" />
  <path
     d="m 248.50586,252.40942 c -0.33,0.66 -0.66,1.32 -1,2 -2.9375,0.75 -2.9375,0.75 -6,1 -0.66,-0.66 -1.32,-1.32 -2,-2 6.75,-2.125 6.75,-2.125 9,-1 z"
     fill="#19141e"
     id="path62" />
  <path
     d="m 263.50586,231.40942 c 0.66,0 1.32,0 2,0 -0.33,2.31 -0.66,4.62 -1,7 -0.99,0.33 -1.98,0.66 -3,1 0.66,-2.64 1.32,-5.28 2,-8 z"
     fill="#1b1520"
     id="path64" />
</svg>
